<svg id="e03ULZRoBJy1" xmlns="http://www.w3.org/2000/svg" xmlns:xlink="http://www.w3.org/1999/xlink" viewBox="0 0 458.74576 458" shape-rendering="geometricPrecision" text-rendering="geometricPrecision"><defs><linearGradient id="e03ULZRoBJy2-fill" x1="229.390545" y1="-13.868174" x2="229.390545" y2="460.264826" spreadMethod="pad" gradientUnits="userSpaceOnUse"><stop id="e03ULZRoBJy2-fill-0" offset="0%" stop-color="rgb(67,255,231)"/><stop id="e03ULZRoBJy2-fill-1" offset="100%" stop-color="rgb(0,33,71)"/></linearGradient></defs><path id="e03ULZRoBJy2" d="M367.761719,118.984375C357.089844,50.703125,298.273438,0.371094,229.164062,0.371094C160.054688,0.375,101.242188,50.710938,90.574219,118.992188C39.601562,120.449219,-0.746094,162.585938,0.011719,213.574219C0.765625,264.558594,42.347656,305.480469,93.339844,305.421875L177.390625,305.421875L177.390625,343.421875L134.949219,343.421875C132.910156,343.355469,130.9375,344.140625,129.503906,345.585938C128.070312,347.035156,127.304688,349.015625,127.390625,351.050781L127.390625,389.25C121.605469,390.59375,116.324219,393.558594,112.164062,397.792969C99.53125,410.488281,99.5625,431.011719,112.234375,443.664062C124.910156,456.320312,145.4375,456.320312,158.109375,443.664062C170.78125,431.011719,170.816406,410.488281,158.183594,397.792969C154.03125,393.769531,148.949219,390.832031,143.390625,389.246094L143.390625,359.421875L184.929688,359.421875C189.511719,359.285156,193.203125,355.628906,193.390625,351.050781L193.390625,305.421875L221.390625,305.421875L221.390625,394.761719C205.5,398.796875,195.101562,414.03125,197.136719,430.296875C199.167969,446.5625,212.996094,458.769531,229.390625,458.769531C245.785156,458.769531,259.613281,446.5625,261.644531,430.296875C263.675781,414.03125,253.28125,398.796875,237.390625,394.761719L237.390625,305.421875L265.390625,305.421875L265.390625,351.050781C265.578125,355.628906,269.269531,359.285156,273.851562,359.421875L315.390625,359.421875L315.390625,389.246094C309.832031,390.832031,304.753906,393.765625,300.605469,397.789062C291.148438,407.121094,288.265625,421.246094,293.308594,433.539062C298.351562,445.832031,310.324219,453.859375,323.609375,453.859375C336.898438,453.859375,348.871094,445.832031,353.914062,433.539062C358.957031,421.246094,356.074219,407.121094,346.617188,397.789062C342.453125,393.554688,337.171875,390.59375,331.390625,389.246094L331.390625,351.046875C331.476562,349.011719,330.710938,347.03125,329.277344,345.585938C327.839844,344.140625,325.871094,343.355469,323.832031,343.421875L281.390625,343.421875L281.390625,305.421875L366.011719,305.421875C417.496094,305.421875,459.09375,263.03125,458.742188,211.546875C458.386719,161.1875,418.109375,120.207031,367.761719,118.984375ZM146.640625,432.488281C141.390625,437.753906,133.269531,438.867188,126.796875,435.210938C120.324219,431.550781,117.085938,424.019531,118.886719,416.808594C120.6875,409.59375,127.085938,404.46875,134.519531,404.28125C134.660156,404.289062,134.800781,404.304688,134.949219,404.304688C135.09375,404.304688,135.234375,404.289062,135.375,404.28125C141.984375,404.441406,147.859375,408.53125,150.3125,414.667969C152.765625,420.808594,151.320312,427.820312,146.640625,432.488281ZM245.925781,426.3125C245.929688,433.796875,240.902344,440.347656,233.671875,442.285156C226.445312,444.222656,218.8125,441.066406,215.070312,434.582031C211.328125,428.101562,212.40625,419.914062,217.699219,414.621094C220.6875,411.621094,224.726562,409.890625,228.960938,409.796875C229.105469,409.808594,229.246094,409.820312,229.390625,409.820312C229.535156,409.820312,229.675781,409.808594,229.820312,409.796875C238.78125,410.015625,245.933594,417.347656,245.925781,426.316406ZM340.371094,420.796875C340.371094,428.28125,335.34375,434.832031,328.113281,436.769531C320.882812,438.707031,313.253906,435.546875,309.511719,429.066406C305.769531,422.585938,306.847656,414.398438,312.140625,409.105469C315.132812,406.105469,319.167969,404.375,323.40625,404.28125C323.546875,404.289062,323.6875,404.304688,323.832031,404.304688C323.976562,404.304688,324.117188,404.289062,324.261719,404.28125C333.226562,404.5,340.375,411.832031,340.367188,420.796875ZM365.945312,285.421875L281.390625,285.421875L281.390625,183.105469C281.390625,178.6875,277.808594,175.105469,273.390625,175.105469C268.972656,175.105469,265.390625,178.6875,265.390625,183.105469L265.390625,285.421875L237.390625,285.421875L237.390625,183.105469C237.390625,178.6875,233.808594,175.105469,229.390625,175.105469C224.972656,175.105469,221.390625,178.6875,221.390625,183.105469L221.390625,285.421875L193.390625,285.421875L193.390625,183.105469C193.390625,178.6875,189.808594,175.105469,185.390625,175.105469C180.972656,175.105469,177.390625,178.6875,177.390625,183.105469L177.390625,285.421875L93.347656,285.421875C53.113281,285.355469,20.421875,252.925781,20.039062,212.691406C19.929688,193.308594,27.546875,174.679688,41.210938,160.925781C54.871094,147.175781,73.449219,139.4375,92.835938,139.421875L99.410156,139.421875C104.625,139.3125,108.917969,135.292969,109.367188,130.097656C115.066406,67.980469,167.011719,20.351562,229.390625,20.054688C291.738281,20.128906,343.660156,67.90625,348.902344,130.035156C349.3125,135.261719,353.625,139.320312,358.867188,139.421875L365.4375,139.421875C405.582031,139.421875,438.464844,171.773438,438.742188,211.921875C438.890625,231.339844,431.289062,250.011719,417.625,263.808594C403.960938,277.605469,385.363281,285.382812,365.945312,285.421875ZM365.945312,285.421875" transform="matrix(1 0 0 1 0 0.000001)" fill="url(#e03ULZRoBJy2-fill)" stroke="none" stroke-width="1"/></svg>