<svg id="eYMkDeHBPWA1" xmlns="http://www.w3.org/2000/svg" xmlns:xlink="http://www.w3.org/1999/xlink" viewBox="0 0 512 512" shape-rendering="geometricPrecision" text-rendering="geometricPrecision"><defs><linearGradient id="eYMkDeHBPWA5-fill" x1="256" y1="30" x2="256" y2="484.159" spreadMethod="pad" gradientUnits="userSpaceOnUse"><stop id="eYMkDeHBPWA5-fill-0" offset="0%" stop-color="rgb(0,172,234)"/><stop id="eYMkDeHBPWA5-fill-1" offset="100%" stop-color="rgb(0,33,71)"/></linearGradient><linearGradient id="eYMkDeHBPWA7-fill" x1="421.006" y1="30" x2="421.006" y2="484.159" spreadMethod="pad" gradientUnits="userSpaceOnUse"><stop id="eYMkDeHBPWA7-fill-0" offset="0%" stop-color="rgb(0,239,209)"/><stop id="eYMkDeHBPWA7-fill-1" offset="100%" stop-color="rgb(0,172,234)"/></linearGradient></defs><path id="eYMkDeHBPWA2" d="M202.648,127.387C200.649678,124.746823,196.890344,124.224544,194.248,126.22L142.021,165.713C140.521492,166.847071,139.640253,168.618436,139.640253,170.4985C139.640253,172.378564,140.521492,174.149929,142.021,175.284L194.248,214.777C195.955689,216.101579,198.243781,216.405421,200.237981,215.572426C202.23218,214.739431,203.624309,212.898327,203.882425,210.752613C204.140542,208.6069,203.224758,206.488168,201.485,205.206L155.585,170.499L201.485,135.792C204.127057,133.792134,204.647741,130.029152,202.648,127.387Z" fill="rgb(0,33,71)" stroke="none" stroke-width="1"/><path id="eYMkDeHBPWA3" d="M304.646,165.713L252.419,126.22C249.775233,124.238912,246.027381,124.767732,244.034976,127.402981C242.042571,130.03823,242.555317,133.788315,245.182,135.792L291.082,170.499L245.182,205.206C243.442242,206.488168,242.526458,208.6069,242.784575,210.752613C243.042691,212.898327,244.43482,214.739431,246.429019,215.572426C248.423219,216.405421,250.711311,216.101579,252.419,214.777L304.646,175.284C306.145508,174.149929,307.026747,172.378564,307.026747,170.4985C307.026747,168.618436,306.145508,166.847071,304.646,165.713Z" fill="rgb(0,33,71)" stroke="none" stroke-width="1"/><path id="eYMkDeHBPWA4" d="M233.144,105.987C229.868265,105.49358,226.811704,107.746066,226.313,111.021L208.484,228.821C208.162461,230.940657,208.99617,233.070839,210.671077,234.409129C212.345984,235.747418,214.607631,236.090496,216.604077,235.309129C218.600523,234.527761,220.028461,232.740657,220.35,230.621L238.178,112.826C238.418652,111.251352,238.023262,109.645637,237.078976,108.362766C236.134691,107.079896,234.719024,106.225179,233.144,105.987Z" fill="rgb(0,33,71)" stroke="none" stroke-width="1"/><path id="eYMkDeHBPWA5" d="M477.448,199L442,199L442,30.658C442,27.344,438.906,25,435.593,25L11.069,25C9.507363,24.920673,7.980269,25.47777,6.836552,26.544033C5.692836,27.610295,5.030196,29.094641,5,30.658L5,369.416C5,372.729,7.755,375,11.069,375L159.144,375L143.75,430L116.85,430C113.536292,430,110.85,432.686292,110.85,436C110.85,439.313708,113.536292,442,116.85,442L329.814,442C331.937186,442.125902,333.947695,441.035357,335,439.187L335,457.86C335.042217,465.649031,338.184125,473.100684,343.731518,478.568519C349.278912,484.036353,356.775171,487.070296,364.564,487L477.448,487C485.236033,487.07137,492.731676,484.037396,498.2774,478.568987C503.823125,473.100578,506.962029,465.648268,507,457.86L507,228.16C506.963065,220.369592,503.82514,212.914632,498.279771,207.442821C492.734402,201.97101,485.238207,198.932909,477.448,199ZM347,305.073L347,257L495,257L495,420L347,420ZM495,228.163L495,245L347,245L347,228.163C347.035973,223.552444,348.910907,219.146992,352.208589,215.924599C355.506271,212.702205,359.953842,210.9295,364.564,211L477.448,211C482.056803,210.930302,486.502674,212.703646,489.798278,215.926211C493.093882,219.148775,494.966406,223.553792,495,228.163ZM17,37L430,37L430,199L364.564,199C356.772322,198.933446,349.274746,201.971753,343.727504,207.443753C338.180262,212.915753,335.039853,220.371139,335,228.163L335,293L17,293ZM17,305L335,305L335,363L17,363ZM171.607,375L275.056,375L290.449,430L156.213,430ZM329.814,430L302.914,430L287.52,375L335,375L335,433.441C334.022627,431.438963,332.038503,430.122463,329.814,430ZM477.448,475L364.564,475C359.956461,475.075075,355.509731,473.307011,352.211712,470.088608C348.913694,466.870204,347.037516,462.467997,347,457.86L347,432L495,432L495,457.86C494.965399,462.466819,493.091801,466.868907,489.795742,470.087597C486.499683,473.306288,482.054341,475.074814,477.448,475Z" fill="url(#eYMkDeHBPWA5-fill)" stroke="none" stroke-width="1"/><path id="eYMkDeHBPWA6" d="M401.025,232L440.987,232C444.300708,232,446.987,229.313708,446.987,226C446.987,222.686292,444.300708,220,440.987,220L401.025,220C397.711292,220,395.025,222.686292,395.025,226C395.025,229.313708,397.711292,232,401.025,232Z" fill="rgb(0,33,71)" stroke="none" stroke-width="1"/><path id="eYMkDeHBPWA7" d="M421.006,435.38C410.899189,435.38,402.706,443.573189,402.706,453.68C402.706,463.786811,410.899189,471.98,421.006,471.98C431.112811,471.98,439.306,463.786811,439.306,453.68C439.297178,443.576845,431.109155,435.388822,421.006,435.38ZM421.006,459.972C417.526606,459.972,414.706,457.151394,414.706,453.672C414.706,450.192606,417.526606,447.372,421.006,447.372C424.485394,447.372,427.306,450.192606,427.306,453.672C427.306,455.342864,426.642252,456.945294,425.460773,458.126773C424.279294,459.308252,422.676864,459.972,421.006,459.972Z" fill="url(#eYMkDeHBPWA7-fill)" stroke="none" stroke-width="1"/><g id="eYMkDeHBPWA8"><path id="eYMkDeHBPWA9" d="M391.322,285L482.906,285C486.219708,285,488.906,282.313708,488.906,279C488.906,275.686292,486.219708,273,482.906,273L391.322,273C388.008292,273,385.322,275.686292,385.322,279C385.322,282.313708,388.008292,285,391.322,285Z" fill="rgb(0,33,71)" stroke="none" stroke-width="1"/><path id="eYMkDeHBPWA10" d="M482.906,302L391.322,302C388.008292,302,385.322,304.686292,385.322,308C385.322,311.313708,388.008292,314,391.322,314L482.906,314C486.219708,314,488.906,311.313708,488.906,308C488.906,304.686292,486.219708,302,482.906,302Z" fill="rgb(0,33,71)" stroke="none" stroke-width="1"/><path id="eYMkDeHBPWA11" d="M482.906,332L391.322,332C388.008292,332,385.322,334.686292,385.322,338C385.322,341.313708,388.008292,344,391.322,344L482.906,344C486.219708,344,488.906,341.313708,488.906,338C488.906,334.686292,486.219708,332,482.906,332Z" fill="rgb(0,33,71)" stroke="none" stroke-width="1"/><path id="eYMkDeHBPWA12" d="M482.906,362L391.322,362C388.008292,362,385.322,364.686292,385.322,368C385.322,371.313708,388.008292,374,391.322,374L482.906,374C486.219708,374,488.906,371.313708,488.906,368C488.906,364.686292,486.219708,362,482.906,362Z" fill="rgb(0,33,71)" stroke="none" stroke-width="1"/><path id="eYMkDeHBPWA13" d="M482.906,392L391.322,392C388.008292,392,385.322,394.686292,385.322,398C385.322,401.313708,388.008292,404,391.322,404L482.906,404C486.219708,404,488.906,401.313708,488.906,398C488.906,394.686292,486.219708,392,482.906,392Z" fill="rgb(0,33,71)" stroke="none" stroke-width="1"/></g><path id="eYMkDeHBPWA14" d="M372.493,273L359.106,273C355.792292,273,353.106,275.686292,353.106,279C353.106,282.313708,355.792292,285,359.106,285L372.493,285C375.806708,285,378.493,282.313708,378.493,279C378.493,275.686292,375.806708,273,372.493,273Z" fill="rgb(0,33,71)" stroke="none" stroke-width="1"/><path id="eYMkDeHBPWA15" d="M372.493,302L359.106,302C355.792292,302,353.106,304.686292,353.106,308C353.106,311.313708,355.792292,314,359.106,314L372.493,314C375.806708,314,378.493,311.313708,378.493,308C378.493,304.686292,375.806708,302,372.493,302Z" fill="rgb(0,33,71)" stroke="none" stroke-width="1"/><path id="eYMkDeHBPWA16" d="M372.493,332L359.106,332C355.792292,332,353.106,334.686292,353.106,338C353.106,341.313708,355.792292,344,359.106,344L372.493,344C375.806708,344,378.493,341.313708,378.493,338C378.493,334.686292,375.806708,332,372.493,332Z" fill="rgb(0,33,71)" stroke="none" stroke-width="1"/><path id="eYMkDeHBPWA17" d="M372.493,362L359.106,362C355.792292,362,353.106,364.686292,353.106,368C353.106,371.313708,355.792292,374,359.106,374L372.493,374C375.806708,374,378.493,371.313708,378.493,368C378.493,364.686292,375.806708,362,372.493,362Z" fill="rgb(0,33,71)" stroke="none" stroke-width="1"/><path id="eYMkDeHBPWA18" d="M372.493,392L359.106,392C355.792292,392,353.106,394.686292,353.106,398C353.106,401.313708,355.792292,404,359.106,404L372.493,404C375.806708,404,378.493,401.313708,378.493,398C378.493,394.686292,375.806708,392,372.493,392Z" fill="rgb(0,33,71)" stroke="none" stroke-width="1"/></svg>