<svg id="eRrq53mCFOa1" xmlns="http://www.w3.org/2000/svg" xmlns:xlink="http://www.w3.org/1999/xlink" viewBox="0 0 64 64" shape-rendering="geometricPrecision" text-rendering="geometricPrecision"><defs><linearGradient id="eRrq53mCFOa2-fill" x1="32" y1="63" x2="32" y2="1" spreadMethod="pad" gradientUnits="userSpaceOnUse"><stop id="eRrq53mCFOa2-fill-0" offset="0%" stop-color="rgb(0,33,71)"/><stop id="eRrq53mCFOa2-fill-1" offset="100%" stop-color="rgb(11,177,211)"/></linearGradient></defs><path id="eRrq53mCFOa2" d="M59.798,10.553L61.277,8.064L55.935,2.722L53.446,4.202C53.129,4.055,52.808,3.921,52.49,3.802L51.777,1L44.222,1L43.51,3.802C43.192,3.921,42.871,4.054,42.554,4.202L40.065,2.722L36.017,6.77C34.598,5.625,32.847,5,31,5C29.617,5,28.315,5.353,27.179,5.973C25.155,2.89,21.738,1,18,1C11.935,1,7,5.935,7,12C7,12.358,7.025,12.715,7.06,13.071C6.875,13.095,6.69,13.117,6.505,13.156C3.858,13.708,1.708,15.858,1.156,18.505C0.716,20.616,1.229,22.769,2.565,24.413C3.902,26.057,5.883,27,8,27L16,27C16.552,27,17,27.449,17,28L17,30C17,30.551,16.552,31,16,31L9,31C7.346,31,6,32.346,6,34C6,35.654,7.346,37,9,37L18,37C18.552,37,19,37.449,19,38L19,49L6,49C3.243,49,1,51.243,1,54C1,56.757,3.243,59,6,59L23,59L23,63L59,63L59,26.213L61.277,23.935L59.798,21.446C59.945,21.129,60.079,20.809,60.198,20.49L63,19.777L63,12.222L60.198,11.509C60.079,11.19,59.945,10.871,59.798,10.553ZM18,35L9,35C8.448,35,8,34.551,8,34C8,33.449,8.448,33,9,33L16,33C17.654,33,19,31.654,19,30L19,28C19,26.346,17.654,25,16,25L8,25C6.488,25,5.073,24.326,4.118,23.151C3.163,21.976,2.797,20.432,3.113,18.913C3.506,17.033,5.032,15.506,6.913,15.114C8.434,14.796,9.977,15.163,11.151,16.118C12.326,17.073,13,18.488,13,20L15,20C15,17.883,14.058,15.903,12.413,14.566C11.44,13.775,10.287,13.279,9.07,13.092C9.026,12.73,9,12.366,9,12C9,7.038,13.037,3,18,3C21.091,3,23.912,4.58,25.56,7.151C23.99,8.612,23,10.69,23,13L25,13C25,9.691,27.691,7,31,7C32.495,7,33.904,7.55,35.008,8.545L36.202,10.554C36.055,10.872,35.921,11.191,35.802,11.511L33,12.223L33,19.778L35.802,20.491C35.921,20.81,36.055,21.13,36.202,21.447L34.723,23.936L35.787,25L21,25L21,27L23,27L23,49L21,49L21,38C21,36.346,19.654,35,18,35ZM13,57L11,57L11,51L13,51ZM15,55L27,55L27,57L15,57ZM29,51.443L34.713,53.585C34.885,53.65,35,53.816,35,54C35,54.184,34.885,54.35,34.712,54.415L29,56.557ZM27,53L15,53L15,51L27,51ZM3,54C3,52.346,4.346,51,6,51L9,51L9,57L6,57C4.346,57,3,55.654,3,54ZM57,61L25,61L25,59L28.182,59L35.414,56.288C36.362,55.933,37,55.013,37,54C37,52.987,36.362,52.067,35.415,51.712L28.182,49L25,49L25,27L37.787,27L40.065,29.278L42.554,27.798C42.871,27.945,43.192,28.079,43.51,28.198L44.223,31L51.778,31L52.491,28.198C52.809,28.079,53.13,27.946,53.447,27.798L55.936,29.278L57,28.213ZM61,18.223L58.646,18.822L58.478,19.35C58.299,19.909,58.062,20.475,57.774,21.033L57.518,21.526L58.764,23.622L55.621,26.765L53.526,25.519L53.034,25.773C52.474,26.062,51.908,26.298,51.348,26.477L50.82,26.646L50.223,29L45.778,29L45.18,26.646L44.652,26.477C44.092,26.298,43.526,26.062,42.966,25.773L42.474,25.519L40.379,26.765L37.236,23.622L38.482,21.526L38.226,21.033C37.938,20.475,37.701,19.909,37.522,19.35L37.354,18.822L35,18.223L35,13.778L37.354,13.179L37.522,12.651C37.701,12.093,37.938,11.526,38.227,10.968L38.482,10.475L37.236,8.38L40.379,5.237L42.474,6.483L42.966,6.229C43.526,5.94,44.092,5.704,44.652,5.525L45.18,5.356L45.777,3L50.222,3L50.82,5.354L51.348,5.523C51.908,5.702,52.474,5.938,53.034,6.227L53.526,6.481L55.621,5.235L58.764,8.378L57.518,10.473L57.773,10.966C58.062,11.525,58.299,12.091,58.478,12.649L58.646,13.177L61,13.777ZM48,7C43.037,7,39,11.038,39,16C39,20.962,43.037,25,48,25C52.963,25,57,20.962,57,16C57,11.038,52.963,7,48,7ZM48,23C44.141,23,41,19.86,41,16C41,12.14,44.141,9,48,9C51.859,9,55,12.14,55,16C55,19.86,51.859,23,48,23ZM48,11C45.243,11,43,13.243,43,16C43,18.757,45.243,21,48,21C50.757,21,53,18.757,53,16C53,13.243,50.757,11,48,11ZM48,19C46.346,19,45,17.654,45,16C45,14.346,46.346,13,48,13C49.654,13,51,14.346,51,16C51,17.654,49.654,19,48,19ZM33.293,40.293L34.707,41.707L29,47.414L26.293,44.707L27.707,43.293L29,44.586ZM33.293,32.293L34.707,33.707L29,39.414L26.293,36.707L27.707,35.293L29,36.586ZM37,33L55,33L55,35L37,35ZM41,37L55,37L55,39L41,39ZM39,39L37,39L37,37L39,37ZM37,41L55,41L55,43L37,43ZM53,45L55,45L55,47L53,47ZM51,47L37,47L37,45L51,45ZM42,51C40.346,51,39,52.346,39,54C39,55.654,40.346,57,42,57C43.654,57,45,55.654,45,54C45,52.346,43.654,51,42,51ZM42,55C41.448,55,41,54.551,41,54C41,53.449,41.448,53,42,53C42.552,53,43,53.449,43,54C43,54.551,42.552,55,42,55ZM50,51C48.346,51,47,52.346,47,54C47,55.654,48.346,57,50,57C51.654,57,53,55.654,53,54C53,52.346,51.654,51,50,51ZM50,55C49.448,55,49,54.551,49,54C49,53.449,49.448,53,50,53C50.552,53,51,53.449,51,54C51,54.551,50.552,55,50,55Z" fill="url(#eRrq53mCFOa2-fill)" stroke="none" stroke-width="1"/></svg>